<svg width="229" height="32" viewBox="0 0 229 32" fill="none" xmlns="http://www.w3.org/2000/svg">
<path d="M12.644 31.396C8.564 31.396 5.444 30.184 3.284 27.76C1.124 25.312 0.044 21.976 0.044 17.752C0.044 14.968 0.608 12.544 1.736 10.48C2.888 8.392 4.46 6.784 6.452 5.656C8.444 4.528 10.7 3.964 13.22 3.964C14.276 3.964 15.296 4.036 16.28 4.18C17.264 4.3 18.428 4.468 19.772 4.684C20.78 4.852 21.332 4.936 21.428 4.936L21.032 12.352H17.72L16.604 7.204C16.34 6.94 15.884 6.724 15.236 6.556C14.588 6.388 13.76 6.304 12.752 6.304C10.712 6.304 9.068 7.252 7.82 9.148C6.596 11.02 5.984 13.744 5.984 17.32C5.984 20.776 6.572 23.596 7.748 25.78C8.924 27.964 10.64 29.056 12.896 29.056C13.976 29.056 14.804 28.96 15.38 28.768C15.98 28.552 16.484 28.252 16.892 27.868L18.476 24.16L21.5 24.448L20.78 30.028C20.276 30.076 19.772 30.172 19.268 30.316C18.788 30.436 18.488 30.508 18.368 30.532C17.408 30.796 16.508 31 15.668 31.144C14.852 31.312 13.844 31.396 12.644 31.396ZM24.3153 21.028C24.3153 18.772 24.7593 16.852 25.6473 15.268C26.5593 13.684 27.7713 12.496 29.2833 11.704C30.7953 10.888 32.4393 10.48 34.2153 10.48C37.2393 10.48 39.5673 11.416 41.1993 13.288C42.8553 15.136 43.6833 17.656 43.6833 20.848C43.6833 23.128 43.2273 25.072 42.3153 26.68C41.4273 28.264 40.2273 29.452 38.7153 30.244C37.2273 31.012 35.5833 31.396 33.7833 31.396C30.7833 31.396 28.4553 30.472 26.7993 28.624C25.1433 26.752 24.3153 24.22 24.3153 21.028ZM34.0713 29.056C36.7833 29.056 38.1393 26.44 38.1393 21.208C38.1393 18.472 37.8153 16.396 37.1673 14.98C36.5193 13.54 35.4633 12.82 33.9993 12.82C31.2153 12.82 29.8233 15.436 29.8233 20.668C29.8233 23.404 30.1593 25.492 30.8313 26.932C31.5273 28.348 32.6073 29.056 34.0713 29.056ZM49.4399 13.792H46.4159V11.776L49.4399 11.056V9.472C49.4399 7.912 49.8479 6.484 50.6639 5.188C51.5039 3.892 52.6199 2.872 54.0119 2.128C55.4039 1.36 56.8799 0.975998 58.4399 0.975998C59.2559 0.975998 60.0239 1.096 60.7439 1.336V5.944C60.5039 5.704 60.0239 5.464 59.3039 5.224C58.6079 4.984 57.8759 4.864 57.1079 4.864C56.1719 4.864 55.4999 5.104 55.0919 5.584C54.7079 6.04 54.5159 6.832 54.5159 7.96V11.02H59.0879V13.792H54.5159V28.552L58.2959 28.84V31H46.5959V28.84L49.4399 28.516V13.792ZM64.1279 13.792H61.1039V11.776L64.1279 11.056V9.472C64.1279 7.912 64.5359 6.484 65.3519 5.188C66.1919 3.892 67.3079 2.872 68.6999 2.128C70.0919 1.36 71.5679 0.975998 73.1279 0.975998C73.9439 0.975998 74.7119 1.096 75.4319 1.336V5.944C75.1919 5.704 74.7119 5.464 73.9919 5.224C73.2959 4.984 72.5639 4.864 71.7959 4.864C70.8599 4.864 70.1879 5.104 69.7799 5.584C69.3959 6.04 69.2039 6.832 69.2039 7.96V11.02H73.7759V13.792H69.2039V28.552L72.9839 28.84V31H61.2839V28.84L64.1279 28.516V13.792ZM85.4186 31.396C82.2506 31.396 79.8866 30.472 78.3266 28.624C76.7906 26.752 76.0226 24.208 76.0226 20.992C76.0226 18.832 76.4186 16.96 77.2106 15.376C78.0266 13.792 79.1666 12.58 80.6306 11.74C82.0946 10.9 83.7866 10.48 85.7066 10.48C88.1066 10.48 89.9546 11.116 91.2506 12.388C92.5466 13.636 93.2186 15.424 93.2666 17.752C93.2666 19.336 93.1706 20.512 92.9786 21.28H81.2786C81.3746 23.464 81.8906 25.168 82.8266 26.392C83.7626 27.592 85.0946 28.192 86.8226 28.192C87.7586 28.192 88.7186 28.036 89.7026 27.724C90.7106 27.412 91.5026 27.04 92.0786 26.608L92.9786 28.588C92.3306 29.284 91.2746 29.932 89.8106 30.532C88.3706 31.108 86.9066 31.396 85.4186 31.396ZM88.2266 19.12C88.2746 18.448 88.2986 17.932 88.2986 17.572C88.2986 14.38 87.2306 12.784 85.0946 12.784C83.9186 12.784 83.0066 13.252 82.3586 14.188C81.7106 15.124 81.3506 16.768 81.2786 19.12H88.2266ZM105.212 31.396C102.044 31.396 99.6795 30.472 98.1195 28.624C96.5835 26.752 95.8155 24.208 95.8155 20.992C95.8155 18.832 96.2115 16.96 97.0035 15.376C97.8195 13.792 98.9595 12.58 100.424 11.74C101.888 10.9 103.58 10.48 105.5 10.48C107.9 10.48 109.748 11.116 111.044 12.388C112.34 13.636 113.012 15.424 113.06 17.752C113.06 19.336 112.964 20.512 112.772 21.28H101.072C101.168 23.464 101.684 25.168 102.62 26.392C103.556 27.592 104.888 28.192 106.616 28.192C107.552 28.192 108.512 28.036 109.496 27.724C110.504 27.412 111.296 27.04 111.872 26.608L112.772 28.588C112.124 29.284 111.068 29.932 109.604 30.532C108.164 31.108 106.7 31.396 105.212 31.396ZM108.02 19.12C108.068 18.448 108.092 17.932 108.092 17.572C108.092 14.38 107.024 12.784 104.888 12.784C103.712 12.784 102.8 13.252 102.152 14.188C101.504 15.124 101.144 16.768 101.072 19.12H108.02ZM127.103 6.952L124.295 6.484V4.252H129.659C130.475 4.252 131.531 4.204 132.827 4.108C133.139 4.084 133.511 4.06 133.943 4.036C134.375 4.012 134.879 4 135.455 4C139.079 4 141.611 4.516 143.051 5.548C144.515 6.556 145.247 8.068 145.247 10.084C145.247 11.86 144.707 13.348 143.627 14.548C142.571 15.724 141.179 16.444 139.451 16.708C141.827 16.684 143.687 17.224 145.031 18.328C146.399 19.432 147.083 20.968 147.083 22.936C147.083 25.432 146.207 27.436 144.455 28.948C142.703 30.46 139.775 31.216 135.671 31.216C134.591 31.216 133.595 31.18 132.683 31.108C132.443 31.108 132.035 31.084 131.459 31.036C130.883 31.012 130.295 31 129.695 31H124.259V28.84L127.103 28.48V6.952ZM132.323 15.916C132.587 15.94 133.127 15.952 133.943 15.952H135.635C137.099 15.952 138.191 15.496 138.911 14.584C139.631 13.672 139.991 12.388 139.991 10.732C139.991 9.148 139.619 7.996 138.875 7.276C138.131 6.556 136.895 6.196 135.167 6.196C134.711 6.196 133.763 6.244 132.323 6.34V15.916ZM132.323 28.624C132.875 28.84 133.931 28.948 135.491 28.948C137.531 28.948 139.007 28.468 139.919 27.508C140.831 26.548 141.287 25.156 141.287 23.332C141.287 21.58 140.867 20.332 140.027 19.588C139.211 18.82 137.903 18.436 136.103 18.436C134.087 18.436 132.827 18.46 132.323 18.508V28.624ZM149.858 28.876L152.234 28.588V14.404L149.93 13.756V11.272L155.51 10.516H155.618L156.518 11.236V12.028L156.41 14.944H156.518C156.686 14.464 157.082 13.876 157.706 13.18C158.33 12.46 159.11 11.836 160.046 11.308C161.006 10.756 162.038 10.48 163.142 10.48C163.67 10.48 164.126 10.552 164.51 10.696V16.096C163.79 15.592 162.914 15.34 161.882 15.34C160.13 15.34 158.606 15.808 157.31 16.744V28.552L161.486 28.876V31H149.858V28.876ZM175.876 31.396C172.708 31.396 170.344 30.472 168.784 28.624C167.248 26.752 166.48 24.208 166.48 20.992C166.48 18.832 166.876 16.96 167.668 15.376C168.484 13.792 169.624 12.58 171.088 11.74C172.552 10.9 174.244 10.48 176.164 10.48C178.564 10.48 180.412 11.116 181.708 12.388C183.004 13.636 183.676 15.424 183.724 17.752C183.724 19.336 183.628 20.512 183.436 21.28H171.736C171.832 23.464 172.348 25.168 173.284 26.392C174.22 27.592 175.552 28.192 177.28 28.192C178.216 28.192 179.176 28.036 180.16 27.724C181.168 27.412 181.96 27.04 182.536 26.608L183.436 28.588C182.788 29.284 181.732 29.932 180.268 30.532C178.828 31.108 177.364 31.396 175.876 31.396ZM178.684 19.12C178.732 18.448 178.756 17.932 178.756 17.572C178.756 14.38 177.688 12.784 175.552 12.784C174.376 12.784 173.464 13.252 172.816 14.188C172.168 15.124 171.808 16.768 171.736 19.12H178.684ZM186.201 25.384C186.201 23.2 187.293 21.556 189.477 20.452C191.685 19.348 194.529 18.784 198.009 18.76V17.932C198.009 16.948 197.901 16.18 197.685 15.628C197.493 15.076 197.121 14.668 196.569 14.404C196.041 14.116 195.261 13.972 194.229 13.972C193.053 13.972 191.997 14.128 191.061 14.44C190.125 14.728 189.153 15.112 188.145 15.592L187.029 13.288C187.389 12.976 187.989 12.604 188.829 12.172C189.693 11.74 190.713 11.368 191.889 11.056C193.065 10.72 194.277 10.552 195.525 10.552C197.373 10.552 198.813 10.792 199.845 11.272C200.901 11.752 201.657 12.52 202.113 13.576C202.569 14.632 202.797 16.048 202.797 17.824V28.84H204.741V30.856C204.261 30.976 203.577 31.096 202.689 31.216C201.801 31.336 201.021 31.396 200.349 31.396C199.533 31.396 198.981 31.276 198.693 31.036C198.429 30.796 198.297 30.304 198.297 29.56V28.588C197.649 29.308 196.809 29.956 195.777 30.532C194.745 31.108 193.581 31.396 192.285 31.396C191.181 31.396 190.161 31.168 189.225 30.712C188.313 30.232 187.581 29.548 187.029 28.66C186.477 27.748 186.201 26.656 186.201 25.384ZM194.589 28.408C195.093 28.408 195.669 28.264 196.317 27.976C196.965 27.664 197.529 27.292 198.009 26.86V20.956C195.849 20.956 194.229 21.328 193.149 22.072C192.093 22.792 191.565 23.728 191.565 24.88C191.565 26.032 191.829 26.908 192.357 27.508C192.909 28.108 193.653 28.408 194.589 28.408ZM208.643 4.684L206.051 4.216V2.272L212.675 1.48H212.747L213.719 2.164V19.264L213.611 21.172L220.955 13.468L218.291 13.072V11.02H227.687V13.072L224.771 13.54L220.343 17.788L226.643 28.552L228.623 28.84V31H219.119V28.84L220.955 28.516L216.851 20.92L213.611 24.196L213.683 26.032V28.516L215.951 28.84V31H206.555V28.84L208.643 28.516V4.684Z" fill="white"/>
</svg>
