<svg width="48" height="48" viewBox="0 0 48 48" fill="none" xmlns="http://www.w3.org/2000/svg">
<g clip-path="url(#clip0_48_285)">
<path d="M12.6507 25.5648H17.9122V47.2258C17.9122 47.6535 18.2588 48 18.6864 48H27.6076C28.0353 48 28.3818 47.6535 28.3818 47.2258V25.6668H34.4304C34.8237 25.6668 35.1546 25.3717 35.1995 24.9811L36.1182 17.0066C36.1434 16.7871 36.0739 16.5674 35.9271 16.4028C35.7802 16.2381 35.5699 16.1438 35.3492 16.1438H28.3821V11.145C28.3821 9.63809 29.1935 8.87396 30.7939 8.87396C31.022 8.87396 35.3492 8.87396 35.3492 8.87396C35.7769 8.87396 36.1234 8.52728 36.1234 8.09977V0.779923C36.1234 0.352258 35.7769 0.00572903 35.3492 0.00572903H29.0713C29.027 0.00356129 28.9287 0 28.7838 0C27.6945 0 23.9082 0.213832 20.9173 2.96532C17.6035 6.0144 18.0641 9.66519 18.1742 10.2982V16.1436H12.6507C12.223 16.1436 11.8765 16.4902 11.8765 16.9178V24.7905C11.8765 25.2181 12.223 25.5648 12.6507 25.5648Z" fill="white"/>
</g>
<defs>
<clipPath id="clip0_48_285">
<rect width="48" height="48" fill="white"/>
</clipPath>
</defs>
</svg>
