<svg width="36" height="36" viewBox="0 0 36 36" fill="none" xmlns="http://www.w3.org/2000/svg">
<path d="M16.5001 30C16.0751 30 15.7189 29.8563 15.4314 29.5688C15.1439 29.2812 15.0001 28.925 15.0001 28.5V19.5L6.30012 8.4C5.92512 7.9 5.86887 7.375 6.13137 6.825C6.39387 6.275 6.85012 6 7.50012 6H28.5001C29.1501 6 29.6064 6.275 29.8689 6.825C30.1314 7.375 30.0751 7.9 29.7001 8.4L21.0001 19.5V28.5C21.0001 28.925 20.8564 29.2812 20.5689 29.5688C20.2814 29.8563 19.9251 30 19.5001 30H16.5001ZM18.0001 18.45L25.4251 9H10.5751L18.0001 18.45Z" fill="white"/>
</svg>
