<svg width="48" height="48" viewBox="0 0 48 48" fill="none" xmlns="http://www.w3.org/2000/svg">
<g clip-path="url(#clip0_48_279)">
<path d="M24 4.32441C30.4083 4.32441 31.1673 4.3488 33.698 4.46427C36.0379 4.57106 37.3087 4.96204 38.1545 5.29062C39.2747 5.726 40.0743 6.24616 40.9141 7.08595C41.7538 7.92574 42.274 8.72532 42.7093 9.84549C43.038 10.6913 43.4289 11.9621 43.5357 14.3019C43.6512 16.8327 43.6756 17.5917 43.6756 24C43.6756 30.4084 43.6512 31.1674 43.5357 33.6981C43.4289 36.038 43.038 37.3088 42.7093 38.1546C42.274 39.2748 41.7538 40.0744 40.9141 40.9141C40.0743 41.7539 39.2747 42.2741 38.1545 42.7094C37.3087 43.0381 36.0379 43.429 33.698 43.5358C31.1676 43.6513 30.4086 43.6757 24 43.6757C17.5913 43.6757 16.8323 43.6513 14.3019 43.5358C11.962 43.429 10.6912 43.0381 9.84549 42.7094C8.72523 42.2741 7.92564 41.7539 7.08585 40.9141C6.24607 40.0744 5.7259 39.2748 5.29062 38.1546C4.96195 37.3088 4.57097 36.038 4.46417 33.6982C4.34871 31.1674 4.32432 30.4084 4.32432 24C4.32432 17.5917 4.34871 16.8327 4.46417 14.302C4.57097 11.9621 4.96195 10.6913 5.29062 9.84549C5.7259 8.72532 6.24607 7.92574 7.08585 7.08595C7.92564 6.24616 8.72523 5.726 9.84549 5.29062C10.6912 4.96204 11.962 4.57106 14.3018 4.46427C16.8326 4.3488 17.5916 4.32441 24 4.32441ZM24 0C17.4819 0 16.6647 0.0276278 14.1048 0.144427C11.5502 0.261035 9.80566 0.666687 8.27899 1.26002C6.70078 1.87335 5.36236 2.69399 4.02813 4.02822C2.6939 5.36245 1.87326 6.70088 1.25992 8.27909C0.666591 9.80576 0.260939 11.5503 0.144331 14.1049C0.0275325 16.6647 0 17.482 0 24C0 30.5181 0.0275325 31.3354 0.144331 33.8952C0.260939 36.4498 0.666591 38.1943 1.25992 39.721C1.87326 41.2991 2.6939 42.6376 4.02813 43.9719C5.36236 45.3061 6.70078 46.1267 8.27899 46.7401C9.80566 47.3334 11.5502 47.7391 14.1048 47.8557C16.6647 47.9725 17.4819 48 24 48C30.518 48 31.3353 47.9725 33.8951 47.8557C36.4497 47.7391 38.1942 47.3334 39.7209 46.7401C41.2991 46.1267 42.6375 45.3061 43.9718 43.9719C45.306 42.6376 46.1266 41.2992 46.74 39.721C47.3333 38.1943 47.739 36.4498 47.8556 33.8952C47.9724 31.3354 48 30.5181 48 24C48 17.482 47.9724 16.6647 47.8556 14.1049C47.739 11.5503 47.3333 9.80576 46.74 8.27909C46.1266 6.70088 45.306 5.36245 43.9718 4.02822C42.6375 2.69399 41.2991 1.87335 39.7209 1.26002C38.1942 0.666687 36.4497 0.261035 33.8951 0.144427C31.3353 0.0276278 30.518 0 24 0ZM24 11.6757C17.1934 11.6757 11.6756 17.1935 11.6756 24C11.6756 30.8066 17.1934 36.3244 24 36.3244C30.8065 36.3244 36.3243 30.8066 36.3243 24C36.3243 17.1935 30.8065 11.6757 24 11.6757ZM24 32.0001C19.5817 32.0001 15.9999 28.4183 15.9999 24C15.9999 19.5818 19.5817 16 24 16C28.4182 16 32 19.5818 32 24C32 28.4183 28.4182 32.0001 24 32.0001ZM39.6912 11.1888C39.6912 12.7794 38.4018 14.0688 36.8112 14.0688C35.2206 14.0688 33.9312 12.7794 33.9312 11.1888C33.9312 9.59817 35.2206 8.30881 36.8112 8.30881C38.4018 8.30881 39.6912 9.59817 39.6912 11.1888Z" fill="white"/>
</g>
<defs>
<clipPath id="clip0_48_279">
<rect width="48" height="48" fill="white"/>
</clipPath>
</defs>
</svg>
