<svg width="49" height="52" viewBox="0 0 49 52" fill="none" xmlns="http://www.w3.org/2000/svg">
<path d="M14.1451 47.6666C13.0337 47.6666 12.0823 47.2423 11.2908 46.3937C10.4994 45.5451 10.1037 44.525 10.1037 43.3333C10.1037 42.1416 10.4994 41.1215 11.2908 40.2729C12.0823 39.4243 13.0337 39 14.1451 39C15.2565 39 16.2079 39.4243 16.9994 40.2729C17.7908 41.1215 18.1866 42.1416 18.1866 43.3333C18.1866 44.525 17.7908 45.5451 16.9994 46.3937C16.2079 47.2423 15.2565 47.6666 14.1451 47.6666ZM34.3524 47.6666C33.241 47.6666 32.2895 47.2423 31.4981 46.3937C30.7066 45.5451 30.3109 44.525 30.3109 43.3333C30.3109 42.1416 30.7066 41.1215 31.4981 40.2729C32.2895 39.4243 33.241 39 34.3524 39C35.4638 39 36.4152 39.4243 37.2066 40.2729C37.9981 41.1215 38.3938 42.1416 38.3938 43.3333C38.3938 44.525 37.9981 45.5451 37.2066 46.3937C36.4152 47.2423 35.4638 47.6666 34.3524 47.6666ZM12.4275 13L17.2772 23.8333H31.4223L36.9793 13H12.4275ZM10.5078 8.66665H40.3135C41.0881 8.66665 41.6775 9.03679 42.0816 9.77706C42.4858 10.5173 42.5026 11.2666 42.1321 12.025L34.9586 25.8916C34.5881 26.6139 34.0913 27.1736 33.4683 27.5708C32.8452 27.968 32.1632 28.1666 31.4223 28.1666H16.3679L14.1451 32.5H38.3938V36.8333H14.1451C12.6296 36.8333 11.4845 36.1201 10.7099 34.6937C9.93526 33.2673 9.90158 31.85 10.6088 30.4416L13.3368 25.1333L6.0622 8.66665H2.02075V4.33331H8.58811L10.5078 8.66665Z" fill="white"/>
<rect x="12.1244" y="9" width="25.1813" height="16" rx="6" fill="white"/>
</svg>
